{"title":"Drive Angry 3D (2011)(DivX)(TS2DivX)(NLSubs) TBS","uid":6241770,"size":1472138267,"categoryP":"video","categoryS":"movies","magnet":"?xt=urn:btih:af32803454bd73c96bc38d51f1cd70483e8c022c&amp;dn=Drive+Angry+3D+%282011%29%28DivX%29%28TS2DivX%29%28NLSubs%29+TBS&amp;tr=udp%3A%2F%2Ftracker.openbittorrent.com%3A80&amp;tr=udp%3A%2F%2Fopen.demonii.com%3A1337&amp;tr=udp%3A%2F%2Ftracker.coppersurfer.tk%3A6969&amp;tr=udp%3A%2F%2Fexodus.desync.com%3A6969","seeders":0,"leechers":1,"uploader":"Vlinder.","files":-1,"time":1300095205,"description":"Drive Angry 3D (2011)(DivX)(TS2DivX)(NLSubs) TBS\n\n*****Momenteel te zien in 53 bioscopen*****\n********Now in the Cinema********\n\nVerenigde Staten\nActie / Thriller\n104 minuten\n\ngeregisseerd door Patrick Lussier\nmet Nicolas Cage, Amber Heard en William Fichtner\n\nWanneer de dochter van Milton (Nicolas Cage) vermoord wordt wil hij maar ÃƒÂ©ÃƒÂ©n ding; wraak. \nHij krijgt drie dagen de tijd om de moordenaars te vinden, omdat deze ook nog \neens zijn kleindochter ontvoerd hebben en ze van plan zijn om haar onder een volle \nmaan te offeren. Hij wordt tijdens zijn wraakmissie vergezeld door Piper (Amber Heard), \neen jonge en sexy serveerster. In Pipers 'turbo-charged Black '69 Charger' beginnen \nze een race tegen de klok...\n\nStoryLine\n\nA vengeful father escapes from hell and chases after the men who killed \nhis daughter and kidnapped his granddaughter. \nWhen the daughter of Milton (Nicolas Cage) is murdered, he wants only one thing: revenge. \nHe gets three days time to find the killers, because it also \nonce kidnapped his granddaughter, and they plan to her under a full \nMon sacrifice. He was accompanied during his revenge mission by Piper (Amber Heard), \na young and sexy waitress. In Piper's &quot;turbo-charged Black '69 Charger 'start \nthey race against the clock ...\n\n**********************************\nDit is natuurlijk wel de 2d versie\n**********************************\n\n  &lt;a href=&quot;\nhttp://www.imdb.com/title/tt1502404&quot; rel=&quot;nofollow&quot; target=&quot;_NEW&quot;&gt;\nhttp://www.imdb.com/title/tt1502404&lt;/a&gt; &lt;a href=&quot;\nhttp://www.moviemeter.nl/film/64422&quot; rel=&quot;nofollow&quot; target=&quot;_NEW&quot;&gt;\nhttp://www.moviemeter.nl/film/64422&lt;/a&gt;\n\nBron.......: Drive Angry 2011 TS Xvid v2-IMAGINE\nSize.......: 1.37 GB\nFormaat....: DivX\nSubs.......: Dutch (Extern)\nsubs.......: Nederlands (instelbaar)\nCover......: Yes\n\nGeneral\nComplete name                    : Drive Angry 2011 TS XViD v2 - IMAGiNE.avi\nFormat                           : AVI\nFormat/Info                      : Audio Video Interleave\nFile size                        : 1.37 GiB\nDuration                         : 1h 32mn\nOverall bit rate                 : 2 117 Kbps\nWriting library                  : VirtualDub build 32706/release\n\nVideo\nID                               : 0\nFormat                           : MPEG-4 Visual\nFormat profile                   : Advanced Simple@L5\nFormat settings, BVOP            : Yes\nFormat settings, QPel            : No\nFormat settings, GMC             : No warppoints\nFormat settings, Matrix          : Default (MPEG)\nMuxing mode                      : Packed bitstream\nCodec ID                         : XVID\nCodec ID/Hint                    : XviD\nDuration                         : 1h 32mn\nBit rate                         : 1 979 Kbps\nWidth                            : 720 pixels\nHeight                           : 480 pixels\nDisplay aspect ratio             : 3:2\nFrame rate                       : 25.000 fps\nStandard                         : NTSC\nColor space                      : YUV\nChroma subsampling               : 4:2:0\nBit depth                        : 8 bits\nScan type                        : Progressive\nBits/(Pixel*Frame)               : 0.229\nStream size                      : 1.28 GiB (93%)\nWriting library                  : XviD 61\n\nAudio\nID                               : 1\nFormat                           : MPEG Audio\nFormat version                   : Version 1\nFormat profile                   : Layer 3\nCodec ID                         : 55\nCodec ID/Hint                    : MP3\nDuration                         : 1h 32mn\nBit rate mode                    : Constant\nBit rate                         : 128 Kbps\nChannel(s)                       : 2 channels\nSampling rate                    : 44.1 KHz\nStream size                      : 84.9 MiB (6%)\nAlignment                        : Split accross interleaves\nInterleave, duration             : 40 ms (1.00 video frame)\nInterleave, preload duration     : 500 ms","torrent":{"xt":"urn:btih:af32803454bd73c96bc38d51f1cd70483e8c022c","amp;dn":"Drive+Angry+3D+%282011%29%28DivX%29%28TS2DivX%29%28NLSubs%29+TBS","amp;tr":["udp%3A%2F%2Ftracker.openbittorrent.com%3A80","udp%3A%2F%2Fopen.demonii.com%3A1337","udp%3A%2F%2Ftracker.coppersurfer.tk%3A6969","udp%3A%2F%2Fexodus.desync.com%3A6969"],"infoHash":"af32803454bd73c96bc38d51f1cd70483e8c022c","infoHashBuffer":{"type":"Buffer","data":[175,50,128,52,84,189,115,201,107,195,141,81,241,205,112,72,62,140,2,44]},"announce":[],"urlList":[]}}